<?xml version="1.0" encoding="utf-8"?>
<!-- Generator: Adobe Illustrator 21.0.1, SVG Export Plug-In . SVG Version: 6.00 Build 0)  -->
<svg version="1.1" id="Layer_1" xmlns="http://www.w3.org/2000/svg" xmlns:xlink="http://www.w3.org/1999/xlink" x="0px" y="0px"
	 viewBox="0 0 24 24" style="enable-background:new 0 0 24 24;" xml:space="preserve">
<style type="text/css">
	.st0{fill:#E74C3C;}
	.st1{fill:none;}
</style>
<path class="st0" d="M3.2,6.2C2.5,6.4,2,7.2,2,8v12c0,1.1,0.9,2,2,2h16c1.1,0,2-0.9,2-2V8c0-1.1-0.9-2-2-2H8.3l8.3-3.3L15.9,1
	L3.2,6.2z M7,20c-1.7,0-3-1.3-3-3s1.3-3,3-3s3,1.3,3,3S8.7,20,7,20z M20,12h-2v-2h-2v2H4V8h16V12z"/>
<path class="st1" d="M0,0h24v24H0V0z"/>
</svg>
